<svg width="79" height="80" viewBox="0 0 79 80" fill="none" xmlns="http://www.w3.org/2000/svg">
<g filter="url(#filter0_d_303_712)">
<path d="M54 40C54 48.2843 47.2843 55 39 55C30.7157 55 24 48.2843 24 40C24 31.7157 30.7157 25 39 25C47.2843 25 54 31.7157 54 40ZM30.5405 40C30.5405 44.672 34.328 48.4595 39 48.4595C43.672 48.4595 47.4595 44.672 47.4595 40C47.4595 35.328 43.672 31.5405 39 31.5405C34.328 31.5405 30.5405 35.328 30.5405 40Z" fill="#B9D8E6"/>
</g>
<circle cx="39" cy="40" r="5" fill="#1092DF"/>
<defs>
<filter id="filter0_d_303_712" x="-1" y="0" width="80" height="80" filterUnits="userSpaceOnUse" color-interpolation-filters="sRGB">
<feFlood flood-opacity="0" result="BackgroundImageFix"/>
<feColorMatrix in="SourceAlpha" type="matrix" values="0 0 0 0 0 0 0 0 0 0 0 0 0 0 0 0 0 0 127 0" result="hardAlpha"/>
<feOffset/>
<feGaussianBlur stdDeviation="12.5"/>
<feComposite in2="hardAlpha" operator="out"/>
<feColorMatrix type="matrix" values="0 0 0 0 0.0708333 0 0 0 0 0.0708333 0 0 0 0 0.0708333 0 0 0 0.1 0"/>
<feBlend mode="normal" in2="BackgroundImageFix" result="effect1_dropShadow_303_712"/>
<feBlend mode="normal" in="SourceGraphic" in2="effect1_dropShadow_303_712" result="shape"/>
</filter>
</defs>
</svg>
