<svg width="11" height="14" viewBox="0 0 11 14" fill="none" xmlns="http://www.w3.org/2000/svg">
<path d="M3.21065 0.0140223C3.94059 -0.0858527 4.554 0.360751 4.84442 0.941231L5.55878 2.36959C5.95509 3.16221 5.72736 4.09225 5.12669 4.67733C4.77182 5.02265 4.41517 5.41719 4.20834 5.76534C4.19464 5.79015 4.19036 5.81908 4.1963 5.84679C4.38755 6.88309 5.08986 7.90698 5.71638 8.64117C5.74789 8.67617 5.78901 8.70112 5.83461 8.7129C5.88022 8.72468 5.92828 8.72276 5.9728 8.7074L7.38061 8.26752C7.75984 8.14899 8.16706 8.15505 8.54259 8.28482C8.91813 8.41458 9.24222 8.66123 9.46736 8.98861L10.4863 10.4704C10.7625 10.8728 10.9024 11.4182 10.6906 11.9427C10.5015 12.4113 10.1357 13.087 9.47019 13.5365C8.77957 14.0025 7.83359 14.1796 6.59578 13.7553C5.21275 13.2808 3.90623 12.0908 2.82284 10.5689C1.73307 9.03748 0.835963 7.12463 0.291963 5.12996C-0.221933 3.2465 0.0883167 1.97858 0.818608 1.16223C1.52305 0.374564 2.53242 0.107168 3.21065 0.0140223ZM4.0525 1.33719C3.89065 1.01383 3.602 0.854106 3.33107 0.891293C2.72863 0.974168 1.97425 1.19836 1.47878 1.75263C1.00915 2.27786 0.684025 3.20294 1.14586 4.89692C1.66471 6.79809 2.51896 8.61496 3.54428 10.0554C4.57596 11.505 5.74826 12.5285 6.88301 12.9177C7.89415 13.2645 8.54405 13.093 8.97471 12.8026C9.43017 12.4949 9.71032 12.0058 9.86969 11.6112C9.94265 11.4306 9.91113 11.1968 9.75671 10.9723L8.73777 9.49046C8.61987 9.31897 8.45014 9.18975 8.25345 9.12174C8.05677 9.05373 7.84347 9.05052 7.64482 9.11257L6.237 9.55244C5.81625 9.68384 5.34238 9.56661 5.04311 9.21598C4.39109 8.45204 3.56021 7.28046 3.3254 6.00723C3.28052 5.76861 3.32381 5.52181 3.44723 5.31271C3.71569 4.8615 4.14069 4.40144 4.50867 4.04302C4.86815 3.69311 4.97015 3.17248 4.76686 2.76554L4.0525 1.33719Z" fill="black"/>
</svg>
