<svg width="30" height="30" viewBox="0 0 30 30" fill="none" xmlns="http://www.w3.org/2000/svg">
<rect x="0.5" y="0.5" width="29" height="29" rx="14.5" fill="white" stroke="#E5EBF1"/>
<mask id="mask0_328_2" style="mask-type:alpha" maskUnits="userSpaceOnUse" x="7" y="7" width="16" height="16">
<rect x="7" y="7" width="16" height="16" fill="#5C6978"/>
</mask>
<g mask="url(#mask0_328_2)">
<path d="M14.9999 21.4954L14.0333 20.6231C12.2888 19.0573 10.9026 17.6955 9.87459 16.5378C8.84703 15.3804 8.33325 14.1587 8.33325 12.8725C8.33325 11.8212 8.68325 10.9433 9.38325 10.2387C10.0833 9.53406 10.9555 9.18176 11.9999 9.18176C12.5888 9.18176 13.1444 9.30747 13.6666 9.55889C14.1888 9.81076 14.6333 10.1548 14.9999 10.591C15.3666 10.1548 15.811 9.81076 16.3333 9.55889C16.8555 9.30747 17.411 9.18176 17.9999 9.18176C19.0444 9.18176 19.9166 9.53406 20.6166 10.2387C21.3166 10.9433 21.6666 11.8212 21.6666 12.8725C21.6666 14.1587 21.1528 15.3804 20.1253 16.5378C19.0973 17.6955 17.711 19.0573 15.9666 20.6231L14.9999 21.4954ZM14.9999 19.6836C16.5888 18.2297 17.875 16.9771 18.8586 15.9258C19.8417 14.8745 20.3333 13.8567 20.3333 12.8725C20.3333 12.2015 20.111 11.6423 19.6666 11.1949C19.2221 10.7475 18.6666 10.5239 17.9999 10.5239C17.4777 10.5239 16.9944 10.6719 16.5499 10.9681C16.1055 11.2647 15.7999 11.6423 15.6333 12.1008H14.3666C14.1999 11.6423 13.8944 11.2647 13.4499 10.9681C13.0055 10.6719 12.5221 10.5239 11.9999 10.5239C11.3333 10.5239 10.7777 10.7475 10.3333 11.1949C9.88881 11.6423 9.66659 12.2015 9.66659 12.8725C9.66659 13.8567 10.1584 14.8745 11.1419 15.9258C12.125 16.9771 13.411 18.2297 14.9999 19.6836Z" fill="url(#paint0_linear_328_2)"/>
</g>
<defs>
<linearGradient id="paint0_linear_328_2" x1="8.33325" y1="10.0939" x2="22.8607" y2="12.6" gradientUnits="userSpaceOnUse">
<stop stop-color="#F6043C"/>
<stop offset="1" stop-color="#0177FF"/>
</linearGradient>
</defs>
</svg>
