<svg width="21" height="20" viewBox="0 0 21 20" fill="none" xmlns="http://www.w3.org/2000/svg">
<path d="M0.00195312 10.002C0.00251636 12.3833 0.852424 14.6863 2.39892 16.4971C3.94541 18.3079 6.08707 19.5078 8.43895 19.881V12.892H5.90195V10.002H8.44195V7.80196C8.38587 7.28705 8.44385 6.7661 8.61177 6.27612C8.7797 5.78615 9.05345 5.33915 9.41359 4.96689C9.77373 4.59463 10.2114 4.30623 10.6956 4.12218C11.1797 3.93813 11.6985 3.86294 12.215 3.90196C12.965 3.91396 13.715 3.98096 14.455 4.10196V6.56096H13.191C12.9761 6.53282 12.7577 6.55332 12.5519 6.62094C12.346 6.68856 12.158 6.80157 12.0017 6.95163C11.8454 7.10168 11.7249 7.28494 11.6489 7.48785C11.573 7.69077 11.5436 7.90816 11.563 8.12396V10.002H14.334L13.891 12.893H11.563V19.881C13.4506 19.5826 15.2132 18.7497 16.6421 17.4807C18.071 16.2118 19.1064 14.5599 19.6257 12.7208C20.145 10.8816 20.1264 8.9322 19.5721 7.10329C19.0179 5.27438 17.9512 3.64259 16.4983 2.4011C15.0455 1.15961 13.2673 0.360428 11.3743 0.0981628C9.48135 -0.164103 7.55287 0.121536 5.81721 0.921262C4.08154 1.72099 2.61137 3.00131 1.58076 4.61064C0.550147 6.21997 0.0022565 8.09091 0.00195312 10.002Z" fill="#334356"/>
</svg>
