<svg width="16" height="16" viewBox="0 0 16 16" fill="none" xmlns="http://www.w3.org/2000/svg">
<mask id="mask0_1_714" style="mask-type:alpha" maskUnits="userSpaceOnUse" x="0" y="0" width="16" height="16">
<rect width="16" height="16" fill="#5C6978"/>
</mask>
<g mask="url(#mask0_1_714)">
<path d="M7.99992 14.4954L7.03325 13.6231C5.28881 12.0573 3.90259 10.6955 2.87459 9.53776C1.84703 8.38043 1.33325 7.15868 1.33325 5.87251C1.33325 4.82121 1.68325 3.94326 2.38325 3.23866C3.08325 2.53406 3.95547 2.18176 4.99992 2.18176C5.58881 2.18176 6.14436 2.30747 6.66658 2.55889C7.18881 2.81076 7.63325 3.15478 7.99992 3.59096C8.36658 3.15478 8.81103 2.81076 9.33325 2.55889C9.85547 2.30747 10.411 2.18176 10.9999 2.18176C12.0444 2.18176 12.9166 2.53406 13.6166 3.23866C14.3166 3.94326 14.6666 4.82121 14.6666 5.87251C14.6666 7.15868 14.1528 8.38043 13.1253 9.53776C12.0973 10.6955 10.711 12.0573 8.96658 13.6231L7.99992 14.4954ZM7.99992 12.6836C9.58881 11.2297 10.875 9.97707 11.8586 8.92577C12.8417 7.87446 13.3333 6.85671 13.3333 5.87251C13.3333 5.20147 13.111 4.64226 12.6666 4.1949C12.2221 3.74754 11.6666 3.52385 10.9999 3.52385C10.4777 3.52385 9.99436 3.67193 9.54992 3.96809C9.10547 4.26469 8.79992 4.64226 8.63325 5.10081H7.36659C7.19992 4.64226 6.89436 4.26469 6.44992 3.96809C6.00547 3.67193 5.52214 3.52385 4.99992 3.52385C4.33325 3.52385 3.7777 3.74754 3.33325 4.1949C2.88881 4.64226 2.66659 5.20147 2.66659 5.87251C2.66659 6.85671 3.15836 7.87446 4.14192 8.92577C5.12503 9.97707 6.41103 11.2297 7.99992 12.6836Z" fill="url(#paint0_linear_1_714)"/>
</g>
<defs>
<linearGradient id="paint0_linear_1_714" x1="1.33325" y1="3.09389" x2="15.8607" y2="5.60004" gradientUnits="userSpaceOnUse">
<stop stop-color="#F6043C"/>
<stop offset="1" stop-color="#0177FF"/>
</linearGradient>
</defs>
</svg>
