<svg width="40" height="40" viewBox="0 0 40 40" fill="none" xmlns="http://www.w3.org/2000/svg">
<rect x="0.5" y="0.5" width="39" height="39" rx="19.5" fill="white" stroke="#334356"/>
<mask id="mask0_1_3654" style="mask-type:alpha" maskUnits="userSpaceOnUse" x="7" y="7" width="26" height="26">
<rect x="7" y="7" width="26" height="26" fill="#D9D9D9"/>
</mask>
<g mask="url(#mask0_1_3654)">
<path d="M16.7227 22.8357C16.3258 22.8357 15.9917 22.6992 15.7204 22.4261C15.45 22.154 15.3148 21.8177 15.3148 21.4173C15.3148 21.0177 15.45 20.6819 15.7204 20.4097C15.9917 20.1366 16.3258 20.0001 16.7227 20.0001C17.1205 20.0001 17.4546 20.1366 17.725 20.4097C17.9954 20.6819 18.1306 21.0177 18.1306 21.4173C18.1306 21.8177 17.9954 22.154 17.725 22.4261C17.4546 22.6992 17.1205 22.8357 16.7227 22.8357ZM23.2773 22.8357C22.8795 22.8357 22.5454 22.6992 22.275 22.4261C22.0046 22.154 21.8694 21.8177 21.8694 21.4173C21.8694 21.0177 22.0046 20.6819 22.275 20.4097C22.5454 20.1366 22.8795 20.0001 23.2773 20.0001C23.6743 20.0001 24.0084 20.1366 24.2796 20.4097C24.55 20.6819 24.6852 21.0177 24.6852 21.4173C24.6852 21.8177 24.55 22.154 24.2796 22.4261C24.0084 22.6992 23.6743 22.8357 23.2773 22.8357ZM20.0273 29.1324C22.4289 29.1324 24.4781 28.274 26.175 26.5572C27.872 24.8395 28.7204 22.772 28.7204 20.3547C28.7204 19.9185 28.6936 19.4867 28.6398 19.0593C28.5852 18.6327 28.486 18.2375 28.3421 17.8737C27.9807 17.947 27.6016 18.0107 27.2046 18.0648C26.8068 18.1189 26.4095 18.1459 26.0125 18.1459C24.3693 18.1459 22.8119 17.7917 21.3403 17.0834C19.8687 16.375 18.6004 15.3845 17.5352 14.1117C16.958 15.511 16.1321 16.7467 15.0574 17.8188C13.9828 18.8918 12.7235 19.6917 11.2796 20.2186V20.3822C11.2796 22.7812 12.1324 24.8395 13.838 26.5572C15.5445 28.274 17.6076 29.1324 20.0273 29.1324ZM20 32.1316C18.375 32.1316 16.854 31.8228 15.437 31.2051C14.0192 30.5866 12.782 29.7461 11.7255 28.6836C10.6699 27.6202 9.83492 26.3749 9.22045 24.9477C8.60685 23.5214 8.30005 21.9904 8.30005 20.3547C8.30005 18.7191 8.60685 17.1881 9.22045 15.7618C9.83492 14.3346 10.6699 13.0893 11.7255 12.0259C12.782 10.9633 14.0192 10.1228 15.437 9.50433C16.854 8.8867 18.375 8.57788 20 8.57788C21.625 8.57788 23.146 8.8867 24.563 9.50433C25.9809 10.1228 27.2181 10.9633 28.2745 12.0259C29.3301 13.0893 30.1652 14.3346 30.7796 15.7618C31.3932 17.1881 31.7 18.7191 31.7 20.3547C31.7 21.9904 31.3932 23.5214 30.7796 24.9477C30.1652 26.3749 29.3301 27.6202 28.2745 28.6836C27.2181 29.7461 25.9809 30.5866 24.563 31.2051C23.146 31.8228 21.625 32.1316 20 32.1316Z" fill="url(#paint0_linear_1_3654)"/>
</g>
<defs>
<linearGradient id="paint0_linear_1_3654" x1="8.30005" y1="10.3226" x2="33.9128" y2="14.3766" gradientUnits="userSpaceOnUse">
<stop stop-color="#F6043C"/>
<stop offset="1" stop-color="#0177FF"/>
</linearGradient>
</defs>
</svg>
