<svg width="65" height="65" viewBox="0 0 65 65" fill="none" xmlns="http://www.w3.org/2000/svg">
<path d="M13.5 42.834V30.834H15.1667C15.6087 30.834 16.0326 31.0096 16.3452 31.3221C16.6577 31.6347 16.8333 32.0586 16.8333 32.5007V41.1673C16.8333 41.6093 16.6577 42.0333 16.3452 42.3458C16.0326 42.6584 15.6087 42.834 15.1667 42.834H13.5ZM30.8333 32.5007C30.8333 32.0586 31.0089 31.6347 31.3215 31.3221C31.634 31.0096 32.058 30.834 32.5 30.834C32.942 30.834 33.366 31.0096 33.6785 31.3221C33.9911 31.6347 34.1667 32.0586 34.1667 32.5007V41.1673C34.1667 41.6093 33.9911 42.0333 33.6785 42.3458C33.366 42.6584 32.942 42.834 32.5 42.834C32.058 42.834 31.634 42.6584 31.3215 42.3458C31.0089 42.0333 30.8333 41.6093 30.8333 41.1673V32.5007Z" stroke="#346DFF"/>
<path d="M8.66683 25.5H8.16683V26V47.6667V48.1667H8.66683H15.1668C17.0233 48.1667 18.8038 47.4292 20.1166 46.1164C21.4293 44.8037 22.1668 43.0232 22.1668 41.1667V32.5C22.1668 30.6435 21.4293 28.863 20.1166 27.5503C18.8038 26.2375 17.0233 25.5 15.1668 25.5H8.66683ZM42.8335 47.6667V48.1667H43.3335H56.3335H56.8335V47.6667V39V38.5H56.3335H52.0002H51.5002V39V42.8333H48.1668V30.8333H51.5002V34.6667V35.1667H52.0002H56.3335H56.8335V34.6667V26V25.5H56.3335H43.3335H42.8335V26V47.6667ZM4.8335 6.5C4.8335 4.9087 5.46564 3.38258 6.59086 2.25736C7.71607 1.13214 9.2422 0.5 10.8335 0.5H46.1901L60.1668 14.4768V58.5C60.1668 60.0913 59.5347 61.6174 58.4095 62.7426C57.2842 63.8679 55.7581 64.5 54.1668 64.5H10.8335C9.2422 64.5 7.71607 63.8679 6.59086 62.7426C5.46564 61.6174 4.8335 60.0913 4.8335 58.5V6.5ZM32.5002 25.5C30.6436 25.5 28.8632 26.2375 27.5504 27.5503C26.2377 28.863 25.5002 30.6435 25.5002 32.5V41.1667C25.5002 43.0232 26.2377 44.8037 27.5504 46.1164C28.8632 47.4292 30.6436 48.1667 32.5002 48.1667C34.3567 48.1667 36.1372 47.4292 37.4499 46.1164C38.7627 44.8037 39.5002 43.0232 39.5002 41.1667V32.5C39.5002 30.6435 38.7627 28.863 37.4499 27.5503C36.1372 26.2375 34.3567 25.5 32.5002 25.5Z" stroke="#346DFF"/>
</svg>
