<svg width="82" height="70" viewBox="0 0 82 70" fill="none" xmlns="http://www.w3.org/2000/svg">
<path d="M81.625 66.25C81.625 67.0788 81.2958 67.8737 80.7097 68.4597C80.1237 69.0458 79.3288 69.375 78.5 69.375H3.5C2.6712 69.375 1.87634 69.0458 1.29029 68.4597C0.70424 67.8737 0.375 67.0788 0.375 66.25C0.375 65.4212 0.70424 64.6263 1.29029 64.0403C1.87634 63.4542 2.6712 63.125 3.5 63.125H78.5C79.3288 63.125 80.1237 63.4542 80.7097 64.0403C81.2958 64.6263 81.625 65.4212 81.625 66.25ZM81.625 6.875V50.625C81.625 52.2826 80.9665 53.8723 79.7944 55.0444C78.6223 56.2165 77.0326 56.875 75.375 56.875H6.625C4.9674 56.875 3.37768 56.2165 2.20558 55.0444C1.03348 53.8723 0.375 52.2826 0.375 50.625V6.875C0.375 5.2174 1.03348 3.62768 2.20558 2.45558C3.37768 1.28348 4.9674 0.625 6.625 0.625H75.375C77.0326 0.625 78.6223 1.28348 79.7944 2.45558C80.9665 3.62768 81.625 5.2174 81.625 6.875ZM55.0625 28.75C55.0623 28.2241 54.9294 27.7067 54.6761 27.2457C54.4228 26.7848 54.0572 26.3953 53.6133 26.1133L36.4258 15.1758C35.9534 14.8756 35.409 14.7079 34.8496 14.6901C34.2902 14.6722 33.7362 14.805 33.2456 15.0744C32.755 15.3438 32.3458 15.7401 32.0607 16.2218C31.7757 16.7034 31.6252 17.2528 31.625 17.8125V39.6875C31.6252 40.2472 31.7757 40.7966 32.0607 41.2782C32.3458 41.7599 32.755 42.1562 33.2456 42.4256C33.7362 42.695 34.2902 42.8278 34.8496 42.8099C35.409 42.7921 35.9534 42.6244 36.4258 42.3242L53.6133 31.3867C54.0572 31.1047 54.4228 30.7152 54.6761 30.2543C54.9294 29.7933 55.0623 29.2759 55.0625 28.75Z" fill="#FF6868"/>
</svg>
