<svg width="53" height="65" viewBox="0 0 53 65" fill="none" xmlns="http://www.w3.org/2000/svg">
<path d="M28.518 36.8289L28.5175 36.8312L28.4772 36.9901C29.2872 38.9534 30.3947 40.2928 32.0001 41.2849C33.3238 41.1305 34.5126 41.0514 35.6418 41.0872M28.518 36.8289L35.6259 41.5869M28.518 36.8289L28.6114 36.4531L28.6116 36.452C28.9387 35.1232 29.1206 34.1291 29.175 33.1166C29.2159 32.3536 29.1729 31.6366 29.0283 30.9625C28.7341 29.3835 27.5453 28.4328 26.0717 28.3753C24.7505 28.3234 23.4197 29.0337 23.0656 30.2888C22.5865 31.9776 22.8717 34.124 23.7773 37.5374C22.6172 40.1877 21.1238 43.2303 20.0947 44.9978C18.7218 45.6857 17.6233 46.3267 16.6869 47.0436L16.6866 47.0438C15.423 48.0127 14.5448 49.0724 14.2974 50.2603C14.1592 50.9003 14.3715 51.6545 14.7799 52.2403L14.7801 52.2405C15.2588 52.9263 15.9921 53.384 16.8732 53.4497C17.9683 53.5314 19.1085 53.0235 20.2535 52.0352C21.3727 51.0691 22.5469 49.6022 23.7603 47.62M28.518 36.8289L23.7603 47.62M35.6418 41.0872L35.6259 41.5869M35.6418 41.0872C35.6417 41.0872 35.6416 41.0872 35.6415 41.0872L35.6259 41.5869M35.6418 41.0872C37.2615 41.1377 38.6168 41.4281 39.4064 42.1756L39.4092 42.1783C40.1914 42.9302 40.4393 44.2211 40.1033 45.3043L40.1033 45.3044C39.7001 46.6029 38.5722 47.3965 37.027 47.3965C35.3196 47.3965 32.8797 46.6835 30.7663 45.6179M35.6259 41.5869C37.2333 41.637 38.4182 41.9286 39.0627 42.5387C39.686 43.1379 39.9156 44.2218 39.6258 45.1561C39.2953 46.2204 38.3806 46.8965 37.027 46.8965C35.3873 46.8965 32.9526 46.1841 30.8461 45.0974M30.7663 45.6179C30.8202 45.6086 30.8738 45.5995 30.9271 45.5908L30.8461 45.0974M30.7663 45.6179C30.7163 45.5927 30.6665 45.5673 30.6169 45.5417L30.8461 45.0974M30.7663 45.6179C29.6296 45.8153 28.3626 46.15 26.6896 46.6749L26.6889 46.6751C26.2852 46.8012 25.8763 46.9326 25.3102 47.1166L25.1554 46.6411M30.8461 45.0974C29.6341 45.2962 28.3016 45.6451 26.5399 46.1979C26.1334 46.3248 25.7223 46.4569 25.1554 46.6411M25.1554 46.6411L25.31 47.1166M25.1554 46.6411L24.2595 46.9328M25.31 47.1166L15.1901 51.9543C15.5891 52.5259 16.1898 52.8974 16.9103 52.9511C18.7284 53.0867 20.9629 51.2804 23.4299 47.2012L23.5303 47.1688C23.7488 47.0985 23.9824 47.0232 24.2595 46.9328M25.31 47.1166L24.4147 47.4081M25.31 47.1166L24.4147 47.4081M24.2595 46.9328L24.4147 47.4081M24.2595 46.9328L24.4147 47.4081M23.7603 47.62C23.957 47.5567 24.1687 47.4884 24.4143 47.4082L23.7603 47.62ZM17.1535 50.8682L17.1408 50.877L17.1535 50.8682ZM17.1535 50.8682L17.1407 50.877L17.1535 50.8682ZM17.1167 50.8936L17.123 50.8892L17.1167 50.8936ZM17.1167 50.8936L17.1097 50.8984L17.1167 50.8936ZM25.7095 32.2838C25.7499 33.1088 25.8803 34.01 26.0621 34.6998C26.1358 34.526 26.2104 34.2562 26.2677 33.9058C26.2909 33.7637 26.3104 33.6136 26.3258 33.4586M25.7095 32.2838L26.3258 33.4586M25.7095 32.2838C25.6553 31.1811 25.7464 30.5195 26.1078 30.5195M25.7095 32.2838L26.1078 30.5195M26.3258 33.4586C26.3567 33.1478 26.3712 32.8169 26.3659 32.4899L26.3659 32.4895C26.3577 31.9509 26.3025 31.5415 26.2156 31.2738C26.1911 31.511 26.1882 31.8384 26.2089 32.2593L26.2089 32.2594C26.2283 32.655 26.269 33.066 26.3258 33.4586ZM26.1078 30.5195C26.6152 30.5195 26.8478 31.303 26.8659 32.4819L26.1078 30.5195ZM51.9453 16.6607L51.9454 16.6608C52.3027 17.0051 52.5 17.4641 52.5 17.9403V62.6786C52.5 63.6692 51.6649 64.5 50.5909 64.5H2.40909C1.33507 64.5 0.5 63.6692 0.5 62.6786V2.32143C0.5 1.33084 1.33507 0.5 2.40909 0.5H34.3822C34.8954 0.5 35.3876 0.698296 35.7443 1.04196L51.9453 16.6607ZM47.444 19.5067H48.6835L47.791 18.6467L33.6225 4.99375L32.7756 4.17763V5.35379V19.0067V19.5067H33.2756H47.444ZM26.0752 31.0106C26.0755 31.0095 26.0799 31.0106 26.0876 31.0172C26.0789 31.0149 26.075 31.0116 26.0752 31.0106ZM24.2083 44.4838C24.8852 43.2369 25.5327 41.8106 26.2051 40.1441C26.9053 41.235 27.737 42.187 28.6478 42.9469C27.6437 43.1935 26.6368 43.5352 25.3695 44.0278L25.3687 44.0281L25.3687 44.0282L25.3428 44.0385L25.1749 44.1047C25.0232 44.1645 24.8007 44.252 24.5591 44.3466C24.4443 44.3916 24.3256 44.438 24.2083 44.4838ZM25.361 44.0316C25.3638 44.0304 25.3665 44.0292 25.3687 44.0283L25.5503 44.4941C25.5195 44.5063 25.4252 44.5435 25.292 44.596C25.2136 44.3167 25.3224 44.0507 25.3409 44.0409C25.3478 44.0376 25.3579 44.0329 25.361 44.0316ZM37.3606 44.3596C37.414 44.3784 37.4605 44.3972 37.5009 44.4156C37.303 44.4384 36.9929 44.4267 36.5315 44.3324C36.2876 44.2825 36.0113 44.2118 35.7001 44.1174C36.445 44.1427 36.9949 44.2307 37.3606 44.3596L37.3606 44.3596Z" stroke="#FF1D1D"/>
</svg>
