<svg width="14" height="14" viewBox="0 0 14 14" fill="none" xmlns="http://www.w3.org/2000/svg">
<path fill-rule="evenodd" clip-rule="evenodd" d="M11.7538 0.00854384C11.4363 0.0699883 11.139 0.189076 10.8919 0.354406C10.7075 0.477295 4.56144 6.62681 4.5044 6.74526C4.44356 6.87132 3.79398 9.46212 3.79398 9.57804C3.79398 9.90046 4.09754 10.2039 4.42011 10.2039C4.53609 10.2039 7.12809 9.5546 7.25421 9.49379C7.37272 9.43678 13.5251 3.2936 13.648 3.10927C13.7716 2.9243 13.8787 2.69436 13.9396 2.48342C14.0207 2.20091 14.02 1.73532 13.9383 1.4509C13.8433 1.11638 13.6635 0.812056 13.4162 0.567449C13.1689 0.322841 12.8626 0.146245 12.5269 0.0547855C12.3767 0.0148783 11.8767 -0.0155272 11.7538 0.00854384ZM12.2601 1.29951C12.4477 1.35525 12.6467 1.55416 12.7025 1.74166C12.7532 1.91205 12.7532 2.02481 12.7025 2.19901C12.6632 2.3333 12.5922 2.40678 9.64722 5.35231L6.63251 8.36815L5.98546 8.52905C5.62929 8.61773 5.33144 8.68298 5.3232 8.67537C5.31559 8.66714 5.38087 8.36942 5.46959 8.01342L5.63056 7.36667L8.64781 4.35526C11.4566 1.55099 11.6739 1.34068 11.7918 1.30331C11.9433 1.25104 12.1078 1.24971 12.2601 1.29951ZM1.65193 1.35145C1.39336 1.40213 1.31414 1.42367 1.17662 1.47941C0.618295 1.70618 0.194955 2.19964 0.0396885 2.80522C-0.0129121 3.01235 -0.0135459 12.3266 0.0396885 12.5331C0.21777 13.2273 0.700682 13.7221 1.42378 13.9507C1.53722 13.9862 2.04675 13.9913 6.21487 13.9982C9.38232 14.0033 10.935 13.9976 11.0522 13.9792C11.3722 13.9277 11.674 13.7962 11.9295 13.5968C12.185 13.3975 12.3859 13.1368 12.5136 12.839C12.6588 12.4951 12.6512 12.6477 12.66 10.0164C12.6689 7.27546 12.679 7.42812 12.4775 7.22668C12.4195 7.16767 12.3504 7.12078 12.2741 7.08876C12.1978 7.05674 12.1158 7.04021 12.0331 7.04015C11.9503 7.0401 11.8684 7.0565 11.792 7.08842C11.7157 7.12033 11.6464 7.16712 11.5884 7.22605C11.3894 7.42495 11.3989 7.28749 11.3989 9.88716C11.3989 12.4868 11.4084 12.3494 11.2094 12.5483C11.0041 12.7535 11.4135 12.7377 6.32895 12.7377C1.24443 12.7377 1.65383 12.7535 1.4485 12.5483C1.24316 12.343 1.25901 12.7541 1.26028 7.65933C1.26091 3.93529 1.26725 3.10484 1.29513 3.02692C1.3452 2.88693 1.44786 2.76467 1.58285 2.68549L1.70263 2.61518L4.09817 2.60251L6.49372 2.58984L6.61413 2.5303C6.99501 2.3428 7.07676 1.82844 6.7732 1.52502C6.57357 1.32548 6.71806 1.33498 4.06205 1.33878C2.76415 1.34005 1.67981 1.34575 1.65193 1.35145Z" fill="black"/>
</svg>
